After being betrayed by the organization who hired him, an ex-Federale launches a brutal rampage of revenge against his former boss.
 
http://www.imdb.com/title/tt0985694/

Subtitles (srt) : Dutch, English subs for Spanish dialog.

Covers included.

Machete (Danny Trejo), is een voormalig lid van de Mexicaanse Federale Politie die tegenwoordig leeggeklopt door de drugsbaas Torrez (Steven Seagal) over de straten van Texas zwerft. Schoorvoetend neemt hij een aanbod aan van spindoctor Benz (Jeff Fahey) om de corrupte senator McLaughlin (Robert De Niro) om te leggen. Bedrogen en met de kansen tegen hem gekeerd vlucht hij. Machete wordt bijgestaan door Luz (Michelle Rodriguez), een brutale tacowerper, Padro (Cheech Marin), zijn 'heilige' broer, en April (Lindsay Lohan), een socialite met een voorliefde voor vuurwapens. Ondertussen wordt hij achtervolgd door Sartana (Jessica Alba), een sexy ICE-agent die een speciaal belang in de zwaardvechter heeft.
 
http://www.moviemeter.nl/film/59376

Ondertitels (srt) : Nederlands, Engels voor Spaanse gesproken delen.

Hoesjes bijgevoegd.

General
Complete name                    : Machete-AC3-XviD-R5 [Eng]2010 2Lions-Team\Machete-AC3-XviD-R5 [Eng]2010 2Lions-Team.avi
Format                           : AVI
Format/Info                      : Audio Video Interleave
File size                        : 1.02 GiB
Duration                         : 1h 39mn
Overall bit rate                 : 1 469 Kbps
Writing application              : VirtualDubMod 1.5.4.1 (build 2178/release)
Writing library                  : VirtualDubMod build 2178/release
Source                           : Machete.2010.D.DVD9.Elektri4ka 

Video
ID                               : 0
Format                           : MPEG-4 Visual
Format profile                   : Simple@L3
Format settings, BVOP            : No
Format settings, QPel            : No
Format settings, GMC             : No warppoints
Format settings, Matrix          : Default (H.263)
Codec ID                         : XVID
Codec ID/Hint                    : XviD
Duration                         : 1h 39mn
Bit rate                         : 1 267 Kbps
Width                            : 624 pixels
Height                           : 336 pixels
Display aspect ratio             : 1.857
Frame rate                       : 25.000 fps
Color space                      : YUV
Chroma subsampling               : 4:2:0
Bit depth                        : 8 bits
Scan type                        : Progressive
Bits/(Pixel*Frame)               : 0.242
Stream size                      : 901 MiB (86%)
Writing library                  : XviD 1.1.2 (UTC 2006-11-01)

Audio
ID                               : 1
Format                           : AC-3
Format/Info                      : Audio Coding 3
Mode extension                   : CM (complete main)
Codec ID                         : 2000
Duration                         : 1h 39mn
Bit rate mode                    : Constant
Bit rate                         : 192 Kbps
Channel(s)                       : 2 channels
Channel positions                : Front: L R
Sampling rate                    : 48.0 KHz
Bit depth                        : 16 bits
Stream size                      : 137 MiB (13%)
Alignment                        : Split accross interleaves
Interleave, duration             : 40 ms (1.00 video frame)
Interleave, preload duration     : 500 ms

Thanks to Simply ReleaseS Team for the source,and Dutch subs.Really nice job!

Brought to you by 
2Lions Team

meer zien??
                   
Kom dan eens kijken op ons NIEUWE forum 
            
http://www.2lions-site.nl/

2Lions the site to be for all your Dutch MOVIES and more

******************************************

DON T HIT AND RUN Niet gelijk afhaken als de FILM binnen is blijf seeden. 

Don`t quit after you finished the download, but keep seeding

There are fake torrents from uploaders who use our team name.
Those are not ours, or members from our team.
We 2Lions-Team are not responsible for the fake posts on our name

Wij 2Lions-Team zijn niet verantwoordelijk voor die zieke FAKE posten die op onze naam worden gedaan

Please check our site !!!

to the fakers , get a life !!!

Hier te vinden: